<svg xmlns="http://www.w3.org/2000/svg" xmlns:xlink="http://www.w3.org/1999/xlink" id="Layer_1" width="88" height="88" x="0" y="0" enable-background="new 0 0 88 88" version="1.1" viewBox="0 0 88 88" xml:space="preserve"><g><g><path fill="#FF2A70" fill-rule="evenodd" d="M44.167,6.661c-20.711,0-37.502,16.792-37.502,37.507 c0,20.714,16.791,37.506,37.502,37.506c20.712,0,37.503-16.792,37.503-37.506C81.67,23.453,64.879,6.661,44.167,6.661z M58.707,46.11c-1.908,1.002-18.126,12.718-19.245,13.299c-1.396,0.724-2.809-0.197-2.809-1.437v-26.65 c0-1.365,1.561-2.027,2.751-1.428c1.626,0.818,17.93,12.594,19.303,13.328C59.939,43.882,59.961,45.452,58.707,46.11z" clip-rule="evenodd"/></g></g><g opacity=".25"><path fill="#FFF" d="M44.167,6.661c20.712,0,37.503,16.792,37.503,37.507c0,20.714-16.791,37.506-37.503,37.506 c-20.711,0-37.502-16.792-37.502-37.506C6.665,23.453,23.456,6.661,44.167,6.661 M44.167,0.661 c-23.987,0-43.502,19.517-43.502,43.507c0,23.989,19.515,43.506,43.502,43.506S87.67,68.157,87.67,44.167 C87.67,20.178,68.154,0.661,44.167,0.661L44.167,0.661z"/></g></svg>